<mxfile host="app.diagrams.net" agent="Mozilla/5.0 (X11; Linux x86_64; rv:128.0) Gecko/20100101 Firefox/128.0" version="26.0.4">
  <diagram name="PÃ¡gina-1" id="RAr3O7P2sCAHX9FC1R6o">
    <mxGraphModel dx="2074" dy="1088" grid="1" gridSize="10" guides="1" tooltips="1" connect="1" arrows="1" fold="1" page="1" pageScale="1" pageWidth="1169" pageHeight="827" math="0" shadow="0">
      <root>
        <mxCell id="0" />
        <mxCell id="1" parent="0" />
        <mxCell id="Kafkijl862wTyKMiCsmo-1" value="" style="endArrow=none;html=1;rounded=0;strokeWidth=3.937;" edge="1" parent="1">
          <mxGeometry width="50" height="50" relative="1" as="geometry">
            <mxPoint x="200" y="380" as="sourcePoint" />
            <mxPoint x="200" y="150" as="targetPoint" />
          </mxGeometry>
        </mxCell>
        <mxCell id="Kafkijl862wTyKMiCsmo-2" value="&lt;div align=&quot;center&quot;&gt;&lt;font style=&quot;font-size: 14px;&quot;&gt;red_externa&lt;/font&gt;&lt;/div&gt;&lt;div align=&quot;center&quot;&gt;&lt;font style=&quot;font-size: 14px;&quot;&gt;172.25.0.0/16&lt;/font&gt;&lt;/div&gt;" style="text;strokeColor=none;align=center;fillColor=none;html=1;verticalAlign=middle;whiteSpace=wrap;rounded=0;" vertex="1" parent="1">
          <mxGeometry x="170" y="384" width="60" height="30" as="geometry" />
        </mxCell>
        <mxCell id="Kafkijl862wTyKMiCsmo-3" value="" style="endArrow=none;html=1;rounded=0;strokeWidth=3.937;exitX=0.875;exitY=0.5;exitDx=0;exitDy=0;exitPerimeter=0;" edge="1" parent="1">
          <mxGeometry width="50" height="50" relative="1" as="geometry">
            <mxPoint x="105" y="190" as="sourcePoint" />
            <mxPoint x="200" y="190" as="targetPoint" />
          </mxGeometry>
        </mxCell>
        <mxCell id="Kafkijl862wTyKMiCsmo-5" value="&lt;font style=&quot;font-size: 14px;&quot;&gt;172.25.0.1&lt;/font&gt;" style="text;strokeColor=none;align=center;fillColor=none;html=1;verticalAlign=middle;whiteSpace=wrap;rounded=0;" vertex="1" parent="1">
          <mxGeometry x="130" y="160" width="60" height="30" as="geometry" />
        </mxCell>
        <mxCell id="Kafkijl862wTyKMiCsmo-7" value="&lt;div&gt;internet&lt;/div&gt;&lt;div&gt;&lt;br&gt;&lt;/div&gt;" style="fillColor=#000000;aspect=fixed;sketch=0;pointerEvents=1;shadow=0;dashed=0;html=1;strokeColor=none;labelPosition=center;verticalLabelPosition=bottom;outlineConnect=0;verticalAlign=top;align=center;shape=mxgraph.openstack.neutron_net;" vertex="1" parent="1">
          <mxGeometry x="10" y="140" width="100" height="100" as="geometry" />
        </mxCell>
        <mxCell id="Kafkijl862wTyKMiCsmo-12" value="" style="edgeStyle=none;rounded=0;orthogonalLoop=1;jettySize=auto;html=1;endArrow=none;endFill=0;strokeWidth=3.937;" edge="1" parent="1" source="Kafkijl862wTyKMiCsmo-8">
          <mxGeometry relative="1" as="geometry">
            <mxPoint x="200" y="225" as="targetPoint" />
          </mxGeometry>
        </mxCell>
        <mxCell id="Kafkijl862wTyKMiCsmo-17" value="" style="edgeStyle=none;rounded=0;orthogonalLoop=1;jettySize=auto;html=1;strokeWidth=3.937;endArrow=none;endFill=0;" edge="1" parent="1" source="Kafkijl862wTyKMiCsmo-8">
          <mxGeometry relative="1" as="geometry">
            <mxPoint x="430" y="225" as="targetPoint" />
          </mxGeometry>
        </mxCell>
        <mxCell id="Kafkijl862wTyKMiCsmo-8" value="&lt;font style=&quot;font-size: 14px;&quot;&gt;router1&lt;/font&gt;" style="fillColor=#000000;aspect=fixed;sketch=0;pointerEvents=1;shadow=0;dashed=0;html=1;strokeColor=none;labelPosition=center;verticalLabelPosition=bottom;outlineConnect=0;verticalAlign=top;align=center;shape=mxgraph.openstack.neutron_router;" vertex="1" parent="1">
          <mxGeometry x="290" y="200" width="50" height="50" as="geometry" />
        </mxCell>
        <mxCell id="Kafkijl862wTyKMiCsmo-11" value="" style="edgeStyle=none;rounded=0;orthogonalLoop=1;jettySize=auto;html=1;strokeWidth=3.937;endArrow=none;endFill=0;" edge="1" parent="1" source="Kafkijl862wTyKMiCsmo-9">
          <mxGeometry relative="1" as="geometry">
            <mxPoint x="200" y="325" as="targetPoint" />
          </mxGeometry>
        </mxCell>
        <mxCell id="Kafkijl862wTyKMiCsmo-9" value="&lt;font style=&quot;font-size: 14px;&quot;&gt;pc1&lt;/font&gt;" style="fillColor=#000000;aspect=fixed;sketch=0;pointerEvents=1;shadow=0;dashed=0;html=1;strokeColor=none;labelPosition=center;verticalLabelPosition=bottom;outlineConnect=0;verticalAlign=top;align=center;shape=mxgraph.openstack.nova_server;" vertex="1" parent="1">
          <mxGeometry x="290" y="300" width="50" height="50" as="geometry" />
        </mxCell>
        <mxCell id="Kafkijl862wTyKMiCsmo-13" value="&lt;font style=&quot;font-size: 14px;&quot;&gt;172.25.0.2&lt;/font&gt;" style="text;strokeColor=none;align=center;fillColor=none;html=1;verticalAlign=middle;whiteSpace=wrap;rounded=0;" vertex="1" parent="1">
          <mxGeometry x="220" y="200" width="60" height="30" as="geometry" />
        </mxCell>
        <mxCell id="Kafkijl862wTyKMiCsmo-14" value="&lt;font style=&quot;font-size: 14px;&quot;&gt;172.25.0.3&lt;/font&gt;" style="text;strokeColor=none;align=center;fillColor=none;html=1;verticalAlign=middle;whiteSpace=wrap;rounded=0;" vertex="1" parent="1">
          <mxGeometry x="220" y="297" width="60" height="30" as="geometry" />
        </mxCell>
        <mxCell id="Kafkijl862wTyKMiCsmo-15" value="" style="endArrow=none;html=1;rounded=0;strokeWidth=3.937;" edge="1" parent="1">
          <mxGeometry width="50" height="50" relative="1" as="geometry">
            <mxPoint x="430" y="384" as="sourcePoint" />
            <mxPoint x="430" y="154" as="targetPoint" />
          </mxGeometry>
        </mxCell>
        <mxCell id="Kafkijl862wTyKMiCsmo-18" value="&lt;div&gt;&lt;font style=&quot;font-size: 14px;&quot;&gt;172.26.0.1&lt;/font&gt;&lt;/div&gt;" style="text;strokeColor=none;align=center;fillColor=none;html=1;verticalAlign=middle;whiteSpace=wrap;rounded=0;" vertex="1" parent="1">
          <mxGeometry x="350" y="200" width="60" height="30" as="geometry" />
        </mxCell>
        <mxCell id="Kafkijl862wTyKMiCsmo-19" value="&lt;div align=&quot;center&quot;&gt;&lt;font style=&quot;font-size: 14px;&quot;&gt;red1&lt;/font&gt;&lt;/div&gt;&lt;div align=&quot;center&quot;&gt;&lt;font style=&quot;font-size: 14px;&quot;&gt;172.26.0.0/16&lt;/font&gt;&lt;/div&gt;" style="text;strokeColor=none;align=center;fillColor=none;html=1;verticalAlign=middle;whiteSpace=wrap;rounded=0;" vertex="1" parent="1">
          <mxGeometry x="400" y="390" width="60" height="30" as="geometry" />
        </mxCell>
        <mxCell id="Kafkijl862wTyKMiCsmo-26" value="" style="edgeStyle=none;rounded=0;orthogonalLoop=1;jettySize=auto;html=1;strokeWidth=3.937;endArrow=none;endFill=0;" edge="1" parent="1" source="Kafkijl862wTyKMiCsmo-20">
          <mxGeometry relative="1" as="geometry">
            <mxPoint x="560" y="460" as="targetPoint" />
          </mxGeometry>
        </mxCell>
        <mxCell id="Kafkijl862wTyKMiCsmo-28" value="" style="edgeStyle=none;rounded=0;orthogonalLoop=1;jettySize=auto;html=1;strokeWidth=3.937;endArrow=none;endFill=0;" edge="1" parent="1" source="Kafkijl862wTyKMiCsmo-20">
          <mxGeometry relative="1" as="geometry">
            <mxPoint x="690" y="285" as="targetPoint" />
          </mxGeometry>
        </mxCell>
        <mxCell id="Kafkijl862wTyKMiCsmo-30" value="" style="edgeStyle=none;rounded=0;orthogonalLoop=1;jettySize=auto;html=1;strokeWidth=3.937;endArrow=none;endFill=0;" edge="1" parent="1" source="Kafkijl862wTyKMiCsmo-20">
          <mxGeometry relative="1" as="geometry">
            <mxPoint x="430" y="285" as="targetPoint" />
          </mxGeometry>
        </mxCell>
        <mxCell id="Kafkijl862wTyKMiCsmo-20" value="&lt;font style=&quot;font-size: 14px;&quot;&gt;router2&lt;/font&gt;" style="fillColor=#000000;aspect=fixed;sketch=0;pointerEvents=1;shadow=0;dashed=0;html=1;strokeColor=none;labelPosition=center;verticalLabelPosition=bottom;outlineConnect=0;verticalAlign=top;align=center;shape=mxgraph.openstack.neutron_router;" vertex="1" parent="1">
          <mxGeometry x="535" y="260" width="50" height="50" as="geometry" />
        </mxCell>
        <mxCell id="Kafkijl862wTyKMiCsmo-23" value="" style="endArrow=none;html=1;rounded=0;strokeWidth=3.937;" edge="1" parent="1">
          <mxGeometry width="50" height="50" relative="1" as="geometry">
            <mxPoint x="690" y="384" as="sourcePoint" />
            <mxPoint x="690" y="154" as="targetPoint" />
          </mxGeometry>
        </mxCell>
        <mxCell id="Kafkijl862wTyKMiCsmo-24" value="" style="endArrow=none;html=1;rounded=0;strokeWidth=3.937;" edge="1" parent="1">
          <mxGeometry width="50" height="50" relative="1" as="geometry">
            <mxPoint x="400" y="460" as="sourcePoint" />
            <mxPoint x="700" y="460" as="targetPoint" />
          </mxGeometry>
        </mxCell>
        <mxCell id="Kafkijl862wTyKMiCsmo-31" value="&lt;div align=&quot;center&quot;&gt;&lt;font style=&quot;font-size: 14px;&quot;&gt;red2&lt;/font&gt;&lt;/div&gt;&lt;div align=&quot;center&quot;&gt;&lt;font style=&quot;font-size: 14px;&quot;&gt;172.27.0.0/16&lt;/font&gt;&lt;/div&gt;" style="text;strokeColor=none;align=center;fillColor=none;html=1;verticalAlign=middle;whiteSpace=wrap;rounded=0;" vertex="1" parent="1">
          <mxGeometry x="640" y="470" width="60" height="30" as="geometry" />
        </mxCell>
        <mxCell id="Kafkijl862wTyKMiCsmo-32" value="&lt;div align=&quot;center&quot;&gt;&lt;font style=&quot;font-size: 14px;&quot;&gt;red3&lt;/font&gt;&lt;/div&gt;&lt;div align=&quot;center&quot;&gt;&lt;font style=&quot;font-size: 14px;&quot;&gt;172.28.0.0/16&lt;/font&gt;&lt;/div&gt;" style="text;strokeColor=none;align=center;fillColor=none;html=1;verticalAlign=middle;whiteSpace=wrap;rounded=0;" vertex="1" parent="1">
          <mxGeometry x="660" y="384" width="60" height="30" as="geometry" />
        </mxCell>
        <mxCell id="Kafkijl862wTyKMiCsmo-33" value="&lt;div&gt;&lt;font style=&quot;font-size: 14px;&quot;&gt;172.26.0.2&lt;/font&gt;&lt;/div&gt;" style="text;strokeColor=none;align=center;fillColor=none;html=1;verticalAlign=middle;whiteSpace=wrap;rounded=0;" vertex="1" parent="1">
          <mxGeometry x="467" y="256" width="60" height="30" as="geometry" />
        </mxCell>
        <mxCell id="Kafkijl862wTyKMiCsmo-35" value="" style="edgeStyle=none;rounded=0;orthogonalLoop=1;jettySize=auto;html=1;strokeWidth=3.937;endArrow=none;endFill=0;" edge="1" parent="1">
          <mxGeometry relative="1" as="geometry">
            <mxPoint x="535" y="285" as="sourcePoint" />
            <mxPoint x="430" y="285" as="targetPoint" />
          </mxGeometry>
        </mxCell>
        <mxCell id="Kafkijl862wTyKMiCsmo-36" value="&lt;div&gt;&lt;font style=&quot;font-size: 14px;&quot;&gt;172.28.0.1&lt;/font&gt;&lt;/div&gt;" style="text;strokeColor=none;align=center;fillColor=none;html=1;verticalAlign=middle;whiteSpace=wrap;rounded=0;" vertex="1" parent="1">
          <mxGeometry x="590" y="256" width="60" height="30" as="geometry" />
        </mxCell>
        <mxCell id="Kafkijl862wTyKMiCsmo-38" value="&lt;div&gt;&lt;font style=&quot;font-size: 14px;&quot;&gt;172.27.0.1&lt;/font&gt;&lt;/div&gt;" style="text;strokeColor=none;align=center;fillColor=none;html=1;verticalAlign=middle;whiteSpace=wrap;rounded=0;" vertex="1" parent="1">
          <mxGeometry x="570" y="330" width="60" height="30" as="geometry" />
        </mxCell>
        <mxCell id="Kafkijl862wTyKMiCsmo-44" value="" style="edgeStyle=none;rounded=0;orthogonalLoop=1;jettySize=auto;html=1;strokeWidth=3.937;endArrow=none;endFill=0;" edge="1" parent="1" source="Kafkijl862wTyKMiCsmo-39">
          <mxGeometry relative="1" as="geometry">
            <mxPoint x="690" y="231" as="targetPoint" />
          </mxGeometry>
        </mxCell>
        <mxCell id="Kafkijl862wTyKMiCsmo-46" value="" style="edgeStyle=none;rounded=0;orthogonalLoop=1;jettySize=auto;html=1;strokeWidth=3.937;endArrow=none;endFill=0;" edge="1" parent="1" source="Kafkijl862wTyKMiCsmo-39">
          <mxGeometry relative="1" as="geometry">
            <mxPoint x="940" y="231" as="targetPoint" />
          </mxGeometry>
        </mxCell>
        <mxCell id="Kafkijl862wTyKMiCsmo-39" value="&lt;font style=&quot;font-size: 14px;&quot;&gt;router3&lt;/font&gt;" style="fillColor=#000000;aspect=fixed;sketch=0;pointerEvents=1;shadow=0;dashed=0;html=1;strokeColor=none;labelPosition=center;verticalLabelPosition=bottom;outlineConnect=0;verticalAlign=top;align=center;shape=mxgraph.openstack.neutron_router;" vertex="1" parent="1">
          <mxGeometry x="790" y="206" width="50" height="50" as="geometry" />
        </mxCell>
        <mxCell id="Kafkijl862wTyKMiCsmo-42" value="" style="endArrow=none;html=1;rounded=0;strokeWidth=3.937;" edge="1" parent="1">
          <mxGeometry width="50" height="50" relative="1" as="geometry">
            <mxPoint x="942" y="384" as="sourcePoint" />
            <mxPoint x="942" y="154" as="targetPoint" />
          </mxGeometry>
        </mxCell>
        <mxCell id="Kafkijl862wTyKMiCsmo-47" value="&lt;div&gt;&lt;font style=&quot;font-size: 14px;&quot;&gt;172.28.0.2&lt;/font&gt;&lt;/div&gt;" style="text;strokeColor=none;align=center;fillColor=none;html=1;verticalAlign=middle;whiteSpace=wrap;rounded=0;" vertex="1" parent="1">
          <mxGeometry x="720" y="206" width="60" height="30" as="geometry" />
        </mxCell>
        <mxCell id="Kafkijl862wTyKMiCsmo-48" value="&lt;div&gt;&lt;font style=&quot;font-size: 14px;&quot;&gt;172.29.0.1&lt;/font&gt;&lt;/div&gt;" style="text;strokeColor=none;align=center;fillColor=none;html=1;verticalAlign=middle;whiteSpace=wrap;rounded=0;" vertex="1" parent="1">
          <mxGeometry x="849" y="205" width="60" height="30" as="geometry" />
        </mxCell>
        <mxCell id="Kafkijl862wTyKMiCsmo-50" value="" style="edgeStyle=none;rounded=0;orthogonalLoop=1;jettySize=auto;html=1;endArrow=none;endFill=0;strokeWidth=3.937;" edge="1" parent="1" source="Kafkijl862wTyKMiCsmo-49">
          <mxGeometry relative="1" as="geometry">
            <mxPoint x="497" y="460" as="targetPoint" />
          </mxGeometry>
        </mxCell>
        <mxCell id="Kafkijl862wTyKMiCsmo-49" value="&lt;div&gt;&lt;font style=&quot;font-size: 14px;&quot;&gt;pc2&lt;/font&gt;&lt;/div&gt;" style="fillColor=#000000;aspect=fixed;sketch=0;pointerEvents=1;shadow=0;dashed=0;html=1;strokeColor=none;labelPosition=center;verticalLabelPosition=bottom;outlineConnect=0;verticalAlign=top;align=center;shape=mxgraph.openstack.nova_server;" vertex="1" parent="1">
          <mxGeometry x="472" y="500" width="50" height="50" as="geometry" />
        </mxCell>
        <mxCell id="Kafkijl862wTyKMiCsmo-51" value="&lt;div&gt;&lt;font style=&quot;font-size: 14px;&quot;&gt;172.27.0.2&lt;/font&gt;&lt;/div&gt;" style="text;strokeColor=none;align=center;fillColor=none;html=1;verticalAlign=middle;whiteSpace=wrap;rounded=0;" vertex="1" parent="1">
          <mxGeometry x="430" y="470" width="60" height="30" as="geometry" />
        </mxCell>
        <mxCell id="Kafkijl862wTyKMiCsmo-56" value="" style="edgeStyle=none;rounded=0;orthogonalLoop=1;jettySize=auto;html=1;strokeWidth=3.937;endSize=5.9055;endArrow=none;endFill=0;" edge="1" parent="1" source="Kafkijl862wTyKMiCsmo-54">
          <mxGeometry relative="1" as="geometry">
            <mxPoint x="940" y="285" as="targetPoint" />
          </mxGeometry>
        </mxCell>
        <mxCell id="Kafkijl862wTyKMiCsmo-54" value="&lt;div&gt;pc3&lt;/div&gt;&lt;div&gt;&lt;br&gt;&lt;/div&gt;" style="fillColor=#000000;aspect=fixed;sketch=0;pointerEvents=1;shadow=0;dashed=0;html=1;strokeColor=none;labelPosition=center;verticalLabelPosition=bottom;outlineConnect=0;verticalAlign=top;align=center;shape=mxgraph.openstack.nova_server;" vertex="1" parent="1">
          <mxGeometry x="1020" y="260" width="50" height="50" as="geometry" />
        </mxCell>
        <mxCell id="Kafkijl862wTyKMiCsmo-57" value="&lt;div&gt;&lt;font style=&quot;font-size: 14px;&quot;&gt;172.29.0.2&lt;/font&gt;&lt;/div&gt;" style="text;strokeColor=none;align=center;fillColor=none;html=1;verticalAlign=middle;whiteSpace=wrap;rounded=0;" vertex="1" parent="1">
          <mxGeometry x="950" y="256" width="60" height="30" as="geometry" />
        </mxCell>
      </root>
    </mxGraphModel>
  </diagram>
</mxfile>
